<svg class="icon-filter" xmlns="http://www.w3.org/2000/svg" xmlns:xlink="http://www.w3.org/1999/xlink" fill="#ffffff" version="1.1" x="0px" y="0px" viewBox="0 0 100 100" enable-background="new 0 0 100 100" xml:space="preserve"><path fill="#ffffff" d="M90,33.1H40.3c-0.9-4.9-5.2-8.6-10.3-8.6s-9.4,3.7-10.3,8.6h-9.4c-1.1,0-2,0.9-2,2s0.9,2,2,2h9.5  c1,4.8,5.2,8.4,10.3,8.4s9.3-3.6,10.3-8.4H90c1.1,0,2-0.9,2-2S91.1,33.1,90,33.1z M30,41.5c-3.6,0-6.5-2.9-6.5-6.5s2.9-6.5,6.5-6.5  s6.5,2.9,6.5,6.5S33.6,41.5,30,41.5z"></path><path fill="#ffffff" d="M90,63h-9.7c-0.9-4.8-5.2-8.5-10.3-8.5s-9.4,3.7-10.3,8.5H10.2c-1.1,0-2,0.9-2,2s0.9,2,2,2h49.4  c0.9,4.8,5.2,8.5,10.3,8.5s9.4-3.7,10.3-8.5H90c1.1,0,2-0.9,2-2S91.1,63,90,63z M70,71.5c-3.6,0-6.5-2.9-6.5-6.5s2.9-6.5,6.5-6.5  s6.5,2.9,6.5,6.5S73.6,71.5,70,71.5z"></path></svg>