<svg  xmlns="http://www.w3.org/2000/svg" class="shape" width="100%" height="100vh" preserveAspectRatio="none" viewBox="0 0 1440 800">
    <path d="M -30.45,-43.86 -30.45,0 53.8,0 53.8,0 179.5,0 179.5,0 193.3,0 193.3,0 253.1,0 253.1,0 276.1,0 276.1,0 320.6,0 320.6,0 406.5,0 406.5,0 435.6,0 435.6,0 477,0 477,0 527.6,0 527.6,0 553.7,0 553.7,0 592,0 592,0 742.3,0 742.3,0 762.2,0 762.2,0 776,0 776,0 791.3,0 791.3,0 852.7,0 852.7,0 871.1,0 871.1,0 878.7,0 878.7,0 891,0 891,0 923.2,0 923.2,0 940.1,0 940.1,0 976.9,0 976.9,0 1031,0 1031,0 1041,0 1041,0 1176,0 1176,0 1192,0 1192,0 1210,0 1210,0 1225,0 1225,0 1236,0 1236,0 1248,0 1248,0 1273,0 1273,0 1291,0 1291,0 1316,0 1316,0 1337,0 1337,0 1356,0 1356,0 1414,0 1414,0 1432,0 1432,0 1486,0 1486,-43.86 Z" pathdata:id="M -30.45,-57.86 -30.45,442.6 53.8,443.8 53.8,396.3 179.5,396.3 179.5,654.7 193.3,654.7 193.3,589.1 253.1,589.1 253.1,561.6 276.1,561.6 276.1,531.2 320.6,531.2 320.6,238.6 406.5,238.6 406.5,213.9 435.6,213.9 435.6,246.2 477,246.2 477,289.9 527.6,289.9 527.6,263.3 553.7,263.3 553.7,280.4 592,280.4 592,189.2 742.3,189.2 742.3,259.5 762.2,259.5 762.2,103.7 776,103.7 776,77.11 791.3,77.11 791.3,18.21 852.7,18.21 852.7,86.61 871.1,86.61 871.1,231 878.7,240.5 878.7,320.3 891,320.3 891,434.3 923.2,434.3 923.2,145.5 940.1,145.5 940.1,117 976.9,117 976.9,139.8 1031,139.8 1031,284.2 1041,284.2 1041,242.4 1176,242.4 1176,282.3 1192,282.3 1192,641.4 1210,641.4 1210,692.7 1225,692.7 1225,599.6 1236,599.6 1236,527.4 1248,527.4 1248,500.8 1273,500.8 1273,523.6 1291,523.6 1291,652.8 1316,652.8 1316,533.1 1337,533.1 1337,502.7 1356,502.7 1356,523.6 1414,523.6 1414,491.3 1432,491.3 1432,523.6 1486,523.6 1486,-57.86 Z"></path>
</svg>