<?xml version="1.0" encoding="UTF-8" standalone="no"?>
<!DOCTYPE svg PUBLIC "-//W3C//DTD SVG 1.1//EN" "http://www.w3.org/Graphics/SVG/1.1/DTD/svg11.dtd">
<svg width="98" height="21" viewBox="0 0 98 21" version="1.1" xmlns="http://www.w3.org/2000/svg" xmlns:xlink="http://www.w3.org/1999/xlink" xml:space="preserve" xmlns:serif="http://www.serif.com/" style="fill-rule:evenodd;clip-rule:evenodd;stroke-linejoin:round;stroke-miterlimit:2;">
    <g transform="matrix(1,0,0,1,-163,-36)">
        <g id="Logo">
            <g transform="matrix(1,0,0,1,-1.52962,-18.2921)">
                <g transform="matrix(30,0,0,30,191.78,73.7621)">
                    <path d="M0.376,-0.628C0.41,-0.628 0.442,-0.621 0.47,-0.608C0.5,-0.595 0.525,-0.577 0.546,-0.554C0.567,-0.531 0.583,-0.504 0.595,-0.474C0.607,-0.444 0.613,-0.413 0.613,-0.38C0.613,-0.347 0.607,-0.315 0.595,-0.285C0.583,-0.256 0.567,-0.23 0.546,-0.207C0.525,-0.184 0.5,-0.166 0.47,-0.153C0.442,-0.14 0.41,-0.133 0.376,-0.133L0.182,-0.133L0.182,0L0.025,0L0.025,-0.628L0.376,-0.628ZM0.376,-0.29C0.388,-0.29 0.399,-0.293 0.408,-0.298C0.418,-0.303 0.427,-0.31 0.434,-0.319C0.441,-0.327 0.446,-0.336 0.45,-0.347C0.454,-0.358 0.456,-0.369 0.456,-0.38C0.456,-0.391 0.454,-0.402 0.45,-0.412C0.446,-0.424 0.441,-0.433 0.434,-0.442C0.427,-0.451 0.418,-0.458 0.408,-0.463C0.399,-0.468 0.388,-0.471 0.376,-0.471L0.182,-0.471L0.182,-0.29L0.376,-0.29Z" style="fill:white;fill-rule:nonzero;"/>
                </g>
                <g transform="matrix(30,0,0,30,207.71,73.7621)">
                    <path d="M0.191,0L0.025,0L0.189,-0.471C0.196,-0.493 0.207,-0.514 0.222,-0.533C0.236,-0.552 0.253,-0.57 0.272,-0.585C0.291,-0.6 0.311,-0.611 0.334,-0.62C0.357,-0.629 0.38,-0.633 0.403,-0.633L0.503,-0.633L0.503,-0.476L0.403,-0.476C0.384,-0.476 0.369,-0.471 0.36,-0.46C0.351,-0.449 0.343,-0.435 0.336,-0.418L0.191,0Z" style="fill:white;fill-rule:nonzero;"/>
                </g>
                <g transform="matrix(30,0,0,30,222.47,73.7621)">
                    <path d="M0.351,-0.647C0.397,-0.647 0.44,-0.638 0.479,-0.621C0.518,-0.603 0.553,-0.579 0.582,-0.548C0.611,-0.517 0.634,-0.482 0.651,-0.442C0.668,-0.401 0.676,-0.358 0.676,-0.313C0.676,-0.268 0.668,-0.225 0.651,-0.185C0.634,-0.144 0.611,-0.109 0.582,-0.079C0.553,-0.048 0.518,-0.024 0.479,-0.006C0.44,0.012 0.397,0.021 0.351,0.021C0.305,0.021 0.262,0.012 0.223,-0.006C0.183,-0.024 0.148,-0.048 0.119,-0.079C0.09,-0.109 0.067,-0.144 0.05,-0.185C0.033,-0.225 0.025,-0.268 0.025,-0.313C0.025,-0.358 0.033,-0.401 0.05,-0.442C0.067,-0.482 0.09,-0.517 0.119,-0.548C0.148,-0.579 0.183,-0.603 0.223,-0.621C0.262,-0.638 0.305,-0.647 0.351,-0.647ZM0.351,-0.137C0.375,-0.137 0.397,-0.142 0.418,-0.152C0.438,-0.161 0.456,-0.174 0.47,-0.19C0.486,-0.206 0.497,-0.225 0.506,-0.246C0.515,-0.267 0.519,-0.29 0.519,-0.313C0.519,-0.336 0.515,-0.359 0.506,-0.38C0.497,-0.401 0.486,-0.42 0.47,-0.437C0.456,-0.453 0.438,-0.466 0.418,-0.475C0.397,-0.485 0.375,-0.49 0.351,-0.49C0.327,-0.49 0.305,-0.485 0.284,-0.475C0.263,-0.466 0.246,-0.453 0.231,-0.437C0.216,-0.42 0.204,-0.401 0.195,-0.38C0.186,-0.359 0.182,-0.336 0.182,-0.313C0.182,-0.29 0.186,-0.267 0.195,-0.246C0.204,-0.225 0.216,-0.206 0.231,-0.19C0.246,-0.174 0.263,-0.161 0.284,-0.152C0.305,-0.142 0.327,-0.137 0.351,-0.137Z" style="fill:white;fill-rule:nonzero;"/>
                </g>
                <g transform="matrix(30,0,0,30,243.5,73.7621)">
                    <path d="M0.324,-0.649C0.367,-0.649 0.406,-0.641 0.443,-0.624C0.48,-0.607 0.511,-0.584 0.538,-0.555C0.565,-0.526 0.586,-0.492 0.601,-0.454C0.616,-0.416 0.623,-0.376 0.623,-0.334L0.623,0L0.466,0L0.466,-0.334C0.466,-0.354 0.463,-0.374 0.456,-0.393C0.449,-0.411 0.439,-0.428 0.427,-0.443C0.414,-0.457 0.399,-0.469 0.382,-0.477C0.364,-0.487 0.345,-0.491 0.324,-0.491C0.303,-0.491 0.283,-0.487 0.266,-0.477C0.249,-0.469 0.234,-0.457 0.222,-0.443C0.209,-0.428 0.2,-0.411 0.193,-0.393C0.186,-0.374 0.182,-0.354 0.182,-0.334L0.182,0L0.025,0L0.025,-0.334C0.025,-0.376 0.033,-0.416 0.048,-0.454C0.063,-0.492 0.083,-0.526 0.11,-0.555C0.137,-0.584 0.168,-0.607 0.205,-0.624C0.242,-0.641 0.281,-0.649 0.324,-0.649Z" style="fill:white;fill-rule:nonzero;"/>
                </g>
            </g>
            <path id="E" d="M173.024,36.655C167.734,36.655 163.767,41.238 163.767,46.405C163.767,51.541 167.734,56.124 173.024,56.124L188.77,56.124L188.77,51.233L173.024,51.233C171.394,51.233 169.979,50.249 169.241,48.834L185.11,48.834L185.11,43.944L169.241,43.944C169.979,42.56 171.394,41.546 173.024,41.546L188.77,41.546L188.77,36.655L173.024,36.655Z" style="fill:rgb(249,75,41);fill-rule:nonzero;"/>
        </g>
    </g>
</svg>
